<?xml version="1.0" encoding="UTF-8"?>
<svg id="Ebene_1" xmlns="http://www.w3.org/2000/svg" xmlns:xlink="http://www.w3.org/1999/xlink" version="1.1" viewBox="0 0 800 800">
  <!-- Generator: Adobe Illustrator 29.5.1, SVG Export Plug-In . SVG Version: 2.1.0 Build 141)  -->
  <defs>
    <style>
      .st0 {
        stroke: url(#Unbenannter_Verlauf_39);
      }

      .st0, .st1, .st2, .st3, .st4, .st5, .st6, .st7, .st8, .st9, .st10, .st11 {
        fill: none;
        stroke-linecap: round;
        stroke-linejoin: round;
        stroke-width: 5px;
      }

      .st1 {
        stroke: url(#Unbenannter_Verlauf_35);
      }

      .st2 {
        stroke: url(#Unbenannter_Verlauf_37);
      }

      .st3 {
        stroke: url(#Unbenannter_Verlauf_34);
      }

      .st4 {
        stroke: url(#Unbenannter_Verlauf_33);
      }

      .st5 {
        stroke: url(#Unbenannter_Verlauf_32);
      }

      .st6 {
        stroke: url(#Unbenannter_Verlauf_38);
      }

      .st7 {
        stroke: url(#Unbenannter_Verlauf_31);
      }

      .st8 {
        stroke: url(#Unbenannter_Verlauf_36);
      }

      .st9 {
        stroke: url(#Unbenannter_Verlauf_3);
      }

      .st10 {
        stroke: url(#Unbenannter_Verlauf_311);
      }

      .st11 {
        stroke: url(#Unbenannter_Verlauf_310);
      }
    </style>
    <radialGradient id="Unbenannter_Verlauf_3" data-name="Unbenannter Verlauf 3" cx="332.2" cy="492.4" fx="332.2" fy="492.4" r="140.8" gradientUnits="userSpaceOnUse">
      <stop offset="0" stop-color="#5095cb"/>
      <stop offset="1" stop-color="#002e64"/>
    </radialGradient>
    <radialGradient id="Unbenannter_Verlauf_31" data-name="Unbenannter Verlauf 3" cx="276.4" cy="495.5" fx="276.4" fy="495.5" r="160.1" xlink:href="#Unbenannter_Verlauf_3"/>
    <radialGradient id="Unbenannter_Verlauf_32" data-name="Unbenannter Verlauf 3" cx="304.3" cy="742" fx="304.3" fy="742" r="32.3" xlink:href="#Unbenannter_Verlauf_3"/>
    <radialGradient id="Unbenannter_Verlauf_33" data-name="Unbenannter Verlauf 3" cx="304.3" cy="126.5" fx="304.3" fy="126.5" r="74.6" xlink:href="#Unbenannter_Verlauf_3"/>
    <radialGradient id="Unbenannter_Verlauf_34" data-name="Unbenannter Verlauf 3" cx="304.3" cy="245.2" fx="304.3" fy="245.2" r="56.5" xlink:href="#Unbenannter_Verlauf_3"/>
    <radialGradient id="Unbenannter_Verlauf_35" data-name="Unbenannter Verlauf 3" cx="210.6" cy="123.5" fx="210.6" fy="123.5" r="53.5" xlink:href="#Unbenannter_Verlauf_3"/>
    <radialGradient id="Unbenannter_Verlauf_36" data-name="Unbenannter Verlauf 3" cx="467.8" fx="467.8" r="140.8" xlink:href="#Unbenannter_Verlauf_3"/>
    <radialGradient id="Unbenannter_Verlauf_37" data-name="Unbenannter Verlauf 3" cx="523.6" cy="495.5" fx="523.6" fy="495.5" r="160.1" xlink:href="#Unbenannter_Verlauf_3"/>
    <radialGradient id="Unbenannter_Verlauf_38" data-name="Unbenannter Verlauf 3" cx="495.7" cy="742" fx="495.7" fy="742" r="32.3" gradientTransform="translate(991.4 1484.1) rotate(-180)" xlink:href="#Unbenannter_Verlauf_3"/>
    <radialGradient id="Unbenannter_Verlauf_39" data-name="Unbenannter Verlauf 3" cx="495.7" cy="126.5" fx="495.7" fy="126.5" r="74.6" xlink:href="#Unbenannter_Verlauf_3"/>
    <radialGradient id="Unbenannter_Verlauf_310" data-name="Unbenannter Verlauf 3" cx="495.7" cy="245.2" fx="495.7" fy="245.2" r="56.5" gradientTransform="translate(991.4 490.4) rotate(-180)" xlink:href="#Unbenannter_Verlauf_3"/>
    <radialGradient id="Unbenannter_Verlauf_311" data-name="Unbenannter Verlauf 3" cx="589.4" cy="123.5" fx="589.4" fy="123.5" r="53.5" xlink:href="#Unbenannter_Verlauf_3"/>
  </defs>
  <g>
    <line class="st9" x1="336.7" y1="296" x2="327.7" y2="688.9"/>
    <line class="st7" x1="281.6" y1="719.3" x2="271.2" y2="271.8"/>
    <rect class="st5" x="267.7" y="721" width="73.3" height="42" rx="5.2" ry="5.2"/>
    <path class="st4" d="M255.1,193.8v-120.9c0-19.9,16.1-36,36-36h26.4c19.9,0,36,16.1,36,36v143.1"/>
    <rect class="st3" x="232.3" y="218.6" width="143.9" height="53.2" rx="7.2" ry="7.2"/>
    <path class="st1" d="M253,141.9c-27.1,32.6-61.7,48.5-77.3,35.5-15.5-12.9-6.1-49.8,21-82.4,10.8-12.9,22.7-23.2,34.2-30.1"/>
  </g>
  <g>
    <line class="st8" x1="463.3" y1="296" x2="472.3" y2="688.9"/>
    <line class="st2" x1="518.4" y1="719.3" x2="528.8" y2="271.8"/>
    <rect class="st6" x="459.1" y="721" width="73.3" height="42" rx="5.2" ry="5.2" transform="translate(991.4 1484.1) rotate(180)"/>
    <path class="st0" d="M544.9,193.8v-120.9c0-19.9-16.1-36-36-36h-26.4c-19.9,0-36,16.1-36,36v143.1"/>
    <rect class="st11" x="423.7" y="218.6" width="143.9" height="53.2" rx="7.2" ry="7.2" transform="translate(991.4 490.4) rotate(180)"/>
    <path class="st10" d="M547,141.9c27.1,32.6,61.7,48.5,77.3,35.5,15.5-12.9,6.1-49.8-21-82.4-10.8-12.9-22.7-23.2-34.2-30.1"/>
  </g>
</svg>