<?xml version="1.0" encoding="UTF-8"?>
<svg id="Ebene_1" xmlns="http://www.w3.org/2000/svg" version="1.1" viewBox="0 0 800 800">
  <!-- Generator: Adobe Illustrator 29.6.1, SVG Export Plug-In . SVG Version: 2.1.1 Build 9)  -->
  <defs>
    <style>
      .st0 {
        fill: none;
        stroke: #002e64;
        stroke-miterlimit: 10;
        stroke-width: 14px;
      }
    </style>
  </defs>
  <path class="st0" d="M449.6,775h-156.2v-174.6h156.2v174.6ZM196.8,62.6h0c62.2-25.3,128-38,197.4-38s121.6,14.1,156.7,42.3c35,28.2,52.6,70.5,52.6,126.9s-5.6,97.4-16.8,123.1-34.9,52-71,79.2c-36.2,27.1-58.9,47.9-68.3,62.4s-14.1,30.4-14.1,47.7v33.6h-116c-22.4-24.6-33.6-57.5-33.6-98.7s22.9-57.5,68.9-94.4c45.9-36.9,74.1-62.4,84.6-76.5s15.7-31.3,15.7-51.5c0-42.7-30.8-64-92.2-64h0c-43.4,0-87.8,4.3-133.4,13h0s-22.8,4.3-22.8,4.3l-7.7-109.4Z"/>
</svg>