<?xml version="1.0" encoding="UTF-8"?>
<svg id="Ebene_1" data-name="Ebene 1" xmlns="http://www.w3.org/2000/svg" xmlns:xlink="http://www.w3.org/1999/xlink" viewBox="0 0 656.79 761.87">
  <defs>
    <style>
      .cls-1 {
        fill: none;
        stroke: url(#Unbenannter_Verlauf_4);
        stroke-linecap: round;
        stroke-linejoin: round;
        stroke-width: 5px;
      }
    </style>
    <radialGradient id="Unbenannter_Verlauf_4" data-name="Unbenannter Verlauf 4" cx="328.4" cy="380.93" fx="328.4" fy="380.93" r="355.64" gradientUnits="userSpaceOnUse">
      <stop offset="0" stop-color="#00bfbf"/>
      <stop offset="1" stop-color="#0028a6"/>
      <stop offset="1" stop-color="#0028a6"/>
    </radialGradient>
  </defs>
  <path class="cls-1" d="M157.5,422c-4.59,2.5-9.86,3.92-15.46,3.92-17.91,0-32.43-14.55-32.43-32.48s14.52-32.49,32.43-32.49c8.88,0,16.93,3.57,22.79,9.36M142.58,597.79c22.95-37.95,44.38-77.13,63.16-117.31,17.08-36.52,36.95-76.17,20.26-116.54-13.56-32.8-46.01-55.09-81.44-55.92-.73-.02-1.47-.02-2.21-.03h-.42c-.74,0-1.47.01-2.22.03-35.43.88-67.84,23.23-81.35,56.05-16.63,40.4,3.31,80.01,20.44,116.51,18.85,40.15,40.33,79.3,63.35,117.21M66.71,602.58h150.98M377.12,570.37l-35.31-35.38,62.8-62.91M594.93,443.09v87.94h-67.51M463.4,311.39l-98.96,99.13M468.1,185.91l-144.37,144.61M609.76,384.87l-103.47-103.64M567.38,209.05v-67.67M598.75,104.67c0,17.35-14.05,31.42-31.37,31.42s-31.37-14.07-31.37-31.42,14.04-31.42,31.37-31.42,31.37,14.07,31.37,31.42ZM374.88,2.5l93.22,81.04M188.69,83.54l93.22,81.03M374.88,2.5h279.41v594.79h-117.12M188.69,83.54h279.41v594.79h-128.95M281.91,759.37H2.5V164.57h279.41v594.79Z"/>
</svg>